<mxfile host="Electron" agent="Mozilla/5.0 (Windows NT 10.0; Win64; x64) AppleWebKit/537.36 (KHTML, like Gecko) draw.io/27.0.5 Chrome/134.0.6998.205 Electron/35.3.0 Safari/537.36" version="27.0.5">
  <diagram name="Seite-1" id="bGcENvx-rqWKhTurmv1m">
    <mxGraphModel dx="1426" dy="889" grid="1" gridSize="10" guides="1" tooltips="1" connect="1" arrows="1" fold="1" page="1" pageScale="1" pageWidth="827" pageHeight="1169" math="0" shadow="0">
      <root>
        <mxCell id="0" />
        <mxCell id="1" parent="0" />
        <mxCell id="ue7t5pKXN6XHKBtUqyQd-2" value="API-Gateway" style="shape=umlLifeline;perimeter=lifelinePerimeter;whiteSpace=wrap;html=1;container=1;collapsible=0;recursiveResize=0;outlineConnect=0;rounded=1;shadow=0;comic=0;labelBackgroundColor=none;strokeWidth=1;fontFamily=Verdana;fontSize=12;align=center;" parent="1" vertex="1">
          <mxGeometry x="389" y="80" width="100" height="880" as="geometry" />
        </mxCell>
        <mxCell id="ue7t5pKXN6XHKBtUqyQd-3" value="" style="html=1;points=[];perimeter=orthogonalPerimeter;rounded=0;shadow=0;comic=0;labelBackgroundColor=none;strokeWidth=1;fontFamily=Verdana;fontSize=12;align=center;" parent="ue7t5pKXN6XHKBtUqyQd-2" vertex="1">
          <mxGeometry x="45" y="111" width="10" height="669" as="geometry" />
        </mxCell>
        <mxCell id="ue7t5pKXN6XHKBtUqyQd-148" value="" style="shape=umlDestroy;whiteSpace=wrap;html=1;strokeWidth=3;targetShapes=umlLifeline;" parent="ue7t5pKXN6XHKBtUqyQd-2" vertex="1">
          <mxGeometry x="35" y="850" width="30" height="30" as="geometry" />
        </mxCell>
        <mxCell id="tWYZWJ1TWI988hAaF3aB-16" value="Zählung Id" style="html=1;verticalAlign=bottom;endArrow=block;labelBackgroundColor=none;fontFamily=Verdana;fontSize=12;edgeStyle=elbowEdgeStyle;elbow=vertical;exitX=0.925;exitY=0.55;exitDx=0;exitDy=0;exitPerimeter=0;dashed=1;" edge="1" parent="ue7t5pKXN6XHKBtUqyQd-2">
          <mxGeometry x="-0.0028" relative="1" as="geometry">
            <mxPoint x="45.000000000000114" y="770" as="sourcePoint" />
            <mxPoint as="offset" />
            <mxPoint x="-225.75" y="770" as="targetPoint" />
          </mxGeometry>
        </mxCell>
        <mxCell id="ue7t5pKXN6XHKBtUqyQd-4" value="Backend" style="shape=umlLifeline;perimeter=lifelinePerimeter;whiteSpace=wrap;html=1;container=1;collapsible=0;recursiveResize=0;outlineConnect=0;rounded=1;shadow=0;comic=0;labelBackgroundColor=none;strokeWidth=1;fontFamily=Verdana;fontSize=12;align=center;" parent="1" vertex="1">
          <mxGeometry x="670" y="80" width="100" height="880" as="geometry" />
        </mxCell>
        <mxCell id="ue7t5pKXN6XHKBtUqyQd-5" value="" style="html=1;points=[];perimeter=orthogonalPerimeter;rounded=0;shadow=0;comic=0;labelBackgroundColor=none;strokeWidth=1;fontFamily=Verdana;fontSize=12;align=center;" parent="ue7t5pKXN6XHKBtUqyQd-4" vertex="1">
          <mxGeometry x="45" y="152" width="10" height="618" as="geometry" />
        </mxCell>
        <mxCell id="ue7t5pKXN6XHKBtUqyQd-149" value="" style="shape=umlDestroy;whiteSpace=wrap;html=1;strokeWidth=3;targetShapes=umlLifeline;" parent="ue7t5pKXN6XHKBtUqyQd-4" vertex="1">
          <mxGeometry x="35" y="850" width="30" height="30" as="geometry" />
        </mxCell>
        <mxCell id="tWYZWJ1TWI988hAaF3aB-2" value="Je Zeitintervall erstellen eines Sortierindex" style="html=1;align=left;spacingLeft=2;endArrow=block;rounded=0;edgeStyle=orthogonalEdgeStyle;curved=0;rounded=0;" edge="1" parent="ue7t5pKXN6XHKBtUqyQd-4">
          <mxGeometry relative="1" as="geometry">
            <mxPoint x="55" y="333" as="sourcePoint" />
            <Array as="points">
              <mxPoint x="90" y="335" />
              <mxPoint x="90" y="365" />
            </Array>
            <mxPoint x="55" y="363" as="targetPoint" />
            <mxPoint as="offset" />
          </mxGeometry>
        </mxCell>
        <mxCell id="tWYZWJ1TWI988hAaF3aB-3" value="Summenbildung über alle&amp;nbsp;&lt;div&gt;Fahrbeziehungspermutationen&lt;/div&gt;&lt;div&gt;des selben Zeitintervalls&lt;/div&gt;" style="html=1;align=left;spacingLeft=2;endArrow=block;rounded=0;edgeStyle=orthogonalEdgeStyle;curved=0;rounded=0;" edge="1" parent="ue7t5pKXN6XHKBtUqyQd-4">
          <mxGeometry relative="1" as="geometry">
            <mxPoint x="55" y="383" as="sourcePoint" />
            <Array as="points">
              <mxPoint x="90" y="385" />
              <mxPoint x="90" y="415" />
            </Array>
            <mxPoint x="55" y="413" as="targetPoint" />
            <mxPoint as="offset" />
          </mxGeometry>
        </mxCell>
        <mxCell id="tWYZWJ1TWI988hAaF3aB-4" value="Ermitteln der gleitenden Spitzenstunde&lt;div&gt;über alle&amp;nbsp;&lt;span style=&quot;background-color: light-dark(#ffffff, var(--ge-dark-color, #121212)); color: light-dark(rgb(0, 0, 0), rgb(255, 255, 255));&quot;&gt;Fahrbeziehungspermutationen&lt;/span&gt;&lt;/div&gt;" style="html=1;align=left;spacingLeft=2;endArrow=block;rounded=0;edgeStyle=orthogonalEdgeStyle;curved=0;rounded=0;" edge="1" parent="ue7t5pKXN6XHKBtUqyQd-4">
          <mxGeometry relative="1" as="geometry">
            <mxPoint x="55" y="433" as="sourcePoint" />
            <Array as="points">
              <mxPoint x="90" y="435" />
              <mxPoint x="90" y="465" />
            </Array>
            <mxPoint x="55" y="463" as="targetPoint" />
            <mxPoint as="offset" />
          </mxGeometry>
        </mxCell>
        <mxCell id="tWYZWJ1TWI988hAaF3aB-5" value="Summenbildung der einzelnen Zeitblöcke&lt;div&gt;über alle&amp;nbsp;&lt;span style=&quot;background-color: light-dark(#ffffff, var(--ge-dark-color, #121212)); color: light-dark(rgb(0, 0, 0), rgb(255, 255, 255));&quot;&gt;Fahrbeziehungspermutationen&lt;/span&gt;&lt;/div&gt;" style="html=1;align=left;spacingLeft=2;endArrow=block;rounded=0;edgeStyle=orthogonalEdgeStyle;curved=0;rounded=0;" edge="1" parent="ue7t5pKXN6XHKBtUqyQd-4">
          <mxGeometry relative="1" as="geometry">
            <mxPoint x="55" y="483" as="sourcePoint" />
            <Array as="points">
              <mxPoint x="90" y="485" />
              <mxPoint x="90" y="515" />
            </Array>
            <mxPoint x="55" y="513" as="targetPoint" />
            <mxPoint as="offset" />
          </mxGeometry>
        </mxCell>
        <mxCell id="tWYZWJ1TWI988hAaF3aB-6" value="Ermittlung der KI-Tagessummen über alle&lt;div&gt;Fahrbeziehungspermutationen&lt;/div&gt;" style="html=1;align=left;spacingLeft=2;endArrow=block;rounded=0;edgeStyle=orthogonalEdgeStyle;curved=0;rounded=0;" edge="1" parent="ue7t5pKXN6XHKBtUqyQd-4">
          <mxGeometry relative="1" as="geometry">
            <mxPoint x="55" y="538" as="sourcePoint" />
            <Array as="points">
              <mxPoint x="90" y="540" />
              <mxPoint x="90" y="570" />
            </Array>
            <mxPoint x="55" y="568" as="targetPoint" />
            <mxPoint as="offset" />
          </mxGeometry>
        </mxCell>
        <mxCell id="tWYZWJ1TWI988hAaF3aB-10" value="Setzen der Fahrzeugkategorien und&lt;div&gt;Fahrzeugklassen in Zählung&lt;/div&gt;" style="html=1;align=left;spacingLeft=2;endArrow=block;rounded=0;edgeStyle=orthogonalEdgeStyle;curved=0;rounded=0;" edge="1" parent="ue7t5pKXN6XHKBtUqyQd-4">
          <mxGeometry relative="1" as="geometry">
            <mxPoint x="55" y="650" as="sourcePoint" />
            <Array as="points">
              <mxPoint x="90" y="652" />
              <mxPoint x="90" y="682" />
            </Array>
            <mxPoint x="55" y="680" as="targetPoint" />
            <mxPoint as="offset" />
          </mxGeometry>
        </mxCell>
        <mxCell id="ue7t5pKXN6XHKBtUqyQd-7" value="Relationale&lt;div&gt;Datenbank&lt;/div&gt;" style="shape=umlLifeline;perimeter=lifelinePerimeter;whiteSpace=wrap;html=1;container=1;collapsible=0;recursiveResize=0;outlineConnect=0;rounded=1;shadow=0;comic=0;labelBackgroundColor=none;strokeWidth=1;fontFamily=Verdana;fontSize=12;align=center;" parent="1" vertex="1">
          <mxGeometry x="950" y="80" width="100" height="880" as="geometry" />
        </mxCell>
        <mxCell id="ue7t5pKXN6XHKBtUqyQd-150" value="" style="shape=umlDestroy;whiteSpace=wrap;html=1;strokeWidth=3;targetShapes=umlLifeline;" parent="ue7t5pKXN6XHKBtUqyQd-7" vertex="1">
          <mxGeometry x="35" y="850" width="30" height="30" as="geometry" />
        </mxCell>
        <mxCell id="ue7t5pKXN6XHKBtUqyQd-137" value="" style="html=1;points=[];perimeter=orthogonalPerimeter;rounded=0;shadow=0;comic=0;labelBackgroundColor=none;strokeWidth=1;fontFamily=Verdana;fontSize=12;align=center;" parent="ue7t5pKXN6XHKBtUqyQd-7" vertex="1">
          <mxGeometry x="45" y="274" width="10" height="56" as="geometry" />
        </mxCell>
        <mxCell id="tWYZWJ1TWI988hAaF3aB-9" value="" style="html=1;points=[];perimeter=orthogonalPerimeter;rounded=0;shadow=0;comic=0;labelBackgroundColor=none;strokeWidth=1;fontFamily=Verdana;fontSize=12;align=center;" vertex="1" parent="ue7t5pKXN6XHKBtUqyQd-7">
          <mxGeometry x="45" y="590" width="10" height="56" as="geometry" />
        </mxCell>
        <mxCell id="ue7t5pKXN6XHKBtUqyQd-8" value="GUI&lt;div&gt;Self-Service-Portal&lt;/div&gt;" style="shape=umlLifeline;perimeter=lifelinePerimeter;whiteSpace=wrap;html=1;container=1;collapsible=0;recursiveResize=0;outlineConnect=0;rounded=1;shadow=0;comic=0;labelBackgroundColor=none;strokeWidth=1;fontFamily=Verdana;fontSize=12;align=center;" parent="1" vertex="1">
          <mxGeometry x="110" y="80" width="100" height="880" as="geometry" />
        </mxCell>
        <mxCell id="ue7t5pKXN6XHKBtUqyQd-10" value="" style="html=1;points=[];perimeter=orthogonalPerimeter;rounded=0;shadow=0;comic=0;labelBackgroundColor=none;strokeWidth=1;fontFamily=Verdana;fontSize=12;align=center;" parent="ue7t5pKXN6XHKBtUqyQd-8" vertex="1">
          <mxGeometry x="45" y="100" width="10" height="700" as="geometry" />
        </mxCell>
        <mxCell id="ue7t5pKXN6XHKBtUqyQd-147" value="" style="shape=umlDestroy;whiteSpace=wrap;html=1;strokeWidth=3;targetShapes=umlLifeline;" parent="ue7t5pKXN6XHKBtUqyQd-8" vertex="1">
          <mxGeometry x="35" y="850" width="30" height="30" as="geometry" />
        </mxCell>
        <mxCell id="ue7t5pKXN6XHKBtUqyQd-61" value="[Klick auf Abschließen&lt;span style=&quot;background-color: transparent; color: light-dark(rgb(0, 0, 0), rgb(255, 255, 255));&quot;&gt;]&lt;/span&gt;" style="text;html=1;strokeColor=none;fillColor=none;align=center;verticalAlign=middle;whiteSpace=wrap;rounded=0;" parent="1" vertex="1">
          <mxGeometry x="180" y="156" width="191" height="30" as="geometry" />
        </mxCell>
        <mxCell id="C24M_OVeLERZAelbrTyf-3" value="Request für Update Zählungsstatus" style="html=1;verticalAlign=bottom;endArrow=block;entryX=0;entryY=0;labelBackgroundColor=none;fontFamily=Verdana;fontSize=12;edgeStyle=elbowEdgeStyle;elbow=vertical;" parent="1" edge="1">
          <mxGeometry x="0.0037" relative="1" as="geometry">
            <mxPoint x="165" y="211" as="sourcePoint" />
            <mxPoint as="offset" />
            <mxPoint x="434" y="211" as="targetPoint" />
          </mxGeometry>
        </mxCell>
        <mxCell id="C24M_OVeLERZAelbrTyf-4" value="Request für Update Zählungsstatus" style="html=1;verticalAlign=bottom;endArrow=block;entryX=0;entryY=0;labelBackgroundColor=none;fontFamily=Verdana;fontSize=12;edgeStyle=elbowEdgeStyle;elbow=vertical;" parent="1" edge="1">
          <mxGeometry x="0.0037" relative="1" as="geometry">
            <mxPoint x="445" y="240.25" as="sourcePoint" />
            <mxPoint as="offset" />
            <mxPoint x="714" y="240.25" as="targetPoint" />
          </mxGeometry>
        </mxCell>
        <mxCell id="C24M_OVeLERZAelbrTyf-12" value="" style="html=1;verticalAlign=bottom;endArrow=block;labelBackgroundColor=none;fontFamily=Verdana;fontSize=12;edgeStyle=elbowEdgeStyle;elbow=vertical;exitX=0.925;exitY=0.55;exitDx=0;exitDy=0;exitPerimeter=0;dashed=1;" parent="1" edge="1">
          <mxGeometry x="-0.0014" relative="1" as="geometry">
            <mxPoint x="995.25" y="715" as="sourcePoint" />
            <mxPoint as="offset" />
            <mxPoint x="725" y="715" as="targetPoint" />
          </mxGeometry>
        </mxCell>
        <mxCell id="C24M_OVeLERZAelbrTyf-14" value="NoSQL&lt;div&gt;Datenbank&lt;/div&gt;" style="shape=umlLifeline;perimeter=lifelinePerimeter;whiteSpace=wrap;html=1;container=1;collapsible=0;recursiveResize=0;outlineConnect=0;rounded=1;shadow=0;comic=0;labelBackgroundColor=none;strokeWidth=1;fontFamily=Verdana;fontSize=12;align=center;" parent="1" vertex="1">
          <mxGeometry x="1229" y="80" width="100" height="880" as="geometry" />
        </mxCell>
        <mxCell id="C24M_OVeLERZAelbrTyf-15" value="" style="shape=umlDestroy;whiteSpace=wrap;html=1;strokeWidth=3;targetShapes=umlLifeline;" parent="C24M_OVeLERZAelbrTyf-14" vertex="1">
          <mxGeometry x="35" y="850" width="30" height="30" as="geometry" />
        </mxCell>
        <mxCell id="C24M_OVeLERZAelbrTyf-18" value="" style="html=1;points=[];perimeter=orthogonalPerimeter;rounded=0;shadow=0;comic=0;labelBackgroundColor=none;strokeWidth=1;fontFamily=Verdana;fontSize=12;align=center;" parent="C24M_OVeLERZAelbrTyf-14" vertex="1">
          <mxGeometry x="45" y="162" width="10" height="50" as="geometry" />
        </mxCell>
        <mxCell id="tWYZWJ1TWI988hAaF3aB-11" value="" style="html=1;points=[];perimeter=orthogonalPerimeter;rounded=0;shadow=0;comic=0;labelBackgroundColor=none;strokeWidth=1;fontFamily=Verdana;fontSize=12;align=center;" vertex="1" parent="C24M_OVeLERZAelbrTyf-14">
          <mxGeometry x="45" y="700" width="10" height="50" as="geometry" />
        </mxCell>
        <mxCell id="C24M_OVeLERZAelbrTyf-19" value="Holen der Zählstelle" style="html=1;verticalAlign=bottom;endArrow=block;labelBackgroundColor=none;fontFamily=Verdana;fontSize=12;edgeStyle=elbowEdgeStyle;elbow=vertical;" parent="1" edge="1">
          <mxGeometry x="0.0037" relative="1" as="geometry">
            <mxPoint x="725" y="252.25" as="sourcePoint" />
            <mxPoint as="offset" />
            <mxPoint x="1278.5" y="252" as="targetPoint" />
          </mxGeometry>
        </mxCell>
        <mxCell id="C24M_OVeLERZAelbrTyf-20" value="Extrahieren der Zählung aus Zählstelle." style="html=1;align=left;spacingLeft=2;endArrow=block;rounded=0;edgeStyle=orthogonalEdgeStyle;curved=0;rounded=0;" parent="1" edge="1">
          <mxGeometry relative="1" as="geometry">
            <mxPoint x="726" y="295" as="sourcePoint" />
            <Array as="points">
              <mxPoint x="761" y="297" />
              <mxPoint x="761" y="327" />
            </Array>
            <mxPoint x="726" y="325" as="targetPoint" />
            <mxPoint as="offset" />
          </mxGeometry>
        </mxCell>
        <mxCell id="C24M_OVeLERZAelbrTyf-21" value="Zählstelle" style="html=1;verticalAlign=bottom;endArrow=block;labelBackgroundColor=none;fontFamily=Verdana;fontSize=12;edgeStyle=elbowEdgeStyle;elbow=vertical;exitX=0.925;exitY=0.55;exitDx=0;exitDy=0;exitPerimeter=0;dashed=1;" parent="1" edge="1">
          <mxGeometry x="-0.0014" relative="1" as="geometry">
            <mxPoint x="1280.25" y="282" as="sourcePoint" />
            <mxPoint as="offset" />
            <mxPoint x="719.5" y="282" as="targetPoint" />
          </mxGeometry>
        </mxCell>
        <mxCell id="C24M_OVeLERZAelbrTyf-13" value="Holen der zuvor persistierten Zeitintervalle" style="html=1;verticalAlign=bottom;endArrow=block;entryX=0;entryY=0;labelBackgroundColor=none;fontFamily=Verdana;fontSize=12;edgeStyle=elbowEdgeStyle;elbow=vertical;" parent="1" edge="1">
          <mxGeometry x="0.0037" relative="1" as="geometry">
            <mxPoint x="725" y="364.25" as="sourcePoint" />
            <mxPoint as="offset" />
            <mxPoint x="994" y="364.25" as="targetPoint" />
          </mxGeometry>
        </mxCell>
        <mxCell id="tWYZWJ1TWI988hAaF3aB-7" value="Persistieren der aufbereiteten Zietinervalle" style="html=1;verticalAlign=bottom;endArrow=block;entryX=0;entryY=0;labelBackgroundColor=none;fontFamily=Verdana;fontSize=12;edgeStyle=elbowEdgeStyle;elbow=horizontal;" edge="1" parent="1">
          <mxGeometry x="0.0037" relative="1" as="geometry">
            <mxPoint x="724" y="683.25" as="sourcePoint" />
            <mxPoint as="offset" />
            <mxPoint x="993" y="683.25" as="targetPoint" />
          </mxGeometry>
        </mxCell>
        <mxCell id="tWYZWJ1TWI988hAaF3aB-8" value="persistierte Zeitintervalle" style="html=1;verticalAlign=bottom;endArrow=block;labelBackgroundColor=none;fontFamily=Verdana;fontSize=12;edgeStyle=elbowEdgeStyle;elbow=vertical;exitX=0.925;exitY=0.55;exitDx=0;exitDy=0;exitPerimeter=0;dashed=1;" edge="1" parent="1">
          <mxGeometry x="-0.0014" relative="1" as="geometry">
            <mxPoint x="996.25" y="400" as="sourcePoint" />
            <mxPoint as="offset" />
            <mxPoint x="726" y="400" as="targetPoint" />
          </mxGeometry>
        </mxCell>
        <mxCell id="tWYZWJ1TWI988hAaF3aB-12" value="Persistieren der Zählstelle" style="html=1;verticalAlign=bottom;endArrow=block;labelBackgroundColor=none;fontFamily=Verdana;fontSize=12;edgeStyle=elbowEdgeStyle;elbow=vertical;" edge="1" parent="1">
          <mxGeometry x="0.0037" relative="1" as="geometry">
            <mxPoint x="723.25" y="790.25" as="sourcePoint" />
            <mxPoint as="offset" />
            <mxPoint x="1276.75" y="790" as="targetPoint" />
          </mxGeometry>
        </mxCell>
        <mxCell id="tWYZWJ1TWI988hAaF3aB-13" value="Zählstelle" style="html=1;verticalAlign=bottom;endArrow=block;labelBackgroundColor=none;fontFamily=Verdana;fontSize=12;edgeStyle=elbowEdgeStyle;elbow=vertical;exitX=0.925;exitY=0.55;exitDx=0;exitDy=0;exitPerimeter=0;dashed=1;" edge="1" parent="1">
          <mxGeometry x="-0.0014" relative="1" as="geometry">
            <mxPoint x="1280.38" y="820" as="sourcePoint" />
            <mxPoint as="offset" />
            <mxPoint x="719.63" y="820" as="targetPoint" />
          </mxGeometry>
        </mxCell>
        <mxCell id="tWYZWJ1TWI988hAaF3aB-14" value="Zählung Id" style="html=1;verticalAlign=bottom;endArrow=block;labelBackgroundColor=none;fontFamily=Verdana;fontSize=12;edgeStyle=elbowEdgeStyle;elbow=vertical;exitX=0.925;exitY=0.55;exitDx=0;exitDy=0;exitPerimeter=0;dashed=1;" edge="1" parent="1">
          <mxGeometry x="-0.0028" relative="1" as="geometry">
            <mxPoint x="710.7500000000001" y="840" as="sourcePoint" />
            <mxPoint as="offset" />
            <mxPoint x="440" y="840" as="targetPoint" />
          </mxGeometry>
        </mxCell>
      </root>
    </mxGraphModel>
  </diagram>
</mxfile>
